<svg xmlns="http://www.w3.org/2000/svg" viewBox="0 0 120 160" fill="none" stroke="#2d2b29" stroke-width="3" stroke-linecap="round" stroke-linejoin="round"><path d="M23 70 9 84M97 70l14 14" stroke-width="7"/><path d="M47 128v20M73 128v20" stroke-width="9"/><path d="M28 10h64c7 0 12 5 12 12v34H16V22c0-7 5-12 12-12Z" fill="#f28f96"/><path d="M16 56h88v62c0 7-5 12-12 12H28c-7 0-12-5-12-12Z" fill="#f8ede0"/><path d="M24 20c6-3 14-4 22-3" stroke="#fff" stroke-width="4" opacity=".6"/><circle cx="47" cy="38" r="4.5" fill="#2d2b29" stroke="none"/><circle cx="73" cy="38" r="4.5" fill="#2d2b29" stroke="none"/><path d="M53 48c4 3 10 3 14 0"/><circle cx="104" cy="152" r="2.5" fill="#f28f96" stroke="none"/><circle cx="112" cy="146" r="1.8" fill="#f28f96" stroke="none"/><circle cx="96" cy="156" r="1.5" fill="#f8ede0" stroke="#2d2b29" stroke-width="1"/></svg>
